# xmcd
#
# Track frame offsets:
#	150
#	25207
#	46325
#	70245
#	106005
#	123782
#	144725
#	168935
#	195327
#	240375
#	274165
#
# Disc length: 4307 seconds
#
# Revision: 1
# Processed by: cddbd v1.5.1PL0 Copyright (c) Steve Scherf et al.
# Submitted via: CDex 1.50Beta5
#
DISCID=8c10d10b
DTITLE=及川光博 - 禁猟区〜サンクチュアリ〜 Disc 2
DYEAR=2002
DGENRE=Rock
TTITLE0=サンクチュアリ
TTITLE1=天使のうた
TTITLE2=求めすぎてる?僕。
TTITLE3=愛と哲学の小部屋
TTITLE4=今夜、桃色クラブで。
TTITLE5=ミス・アバンチュール
TTITLE6=悲しみロケット2号で
TTITLE7=死んでもいい
TTITLE8=S.D.R.
TTITLE9=ココロノヤミ
TTITLE10=バラ色の人生
EXTD=
EXTT0=
EXTT1=
EXTT2=
EXTT3=
EXTT4=
EXTT5=
EXTT6=
EXTT7=
EXTT8=
EXTT9=
EXTT10=
PLAYORDER=
